<?xml version="1.0" encoding="utf-8"?><!-- Generator: Adobe Illustrator 25.2.0, SVG Export Plug-In . SVG Version: 6.00 Build 0)  -->
<svg version="1.1" xmlns="http://www.w3.org/2000/svg" xmlns:xlink="http://www.w3.org/1999/xlink" x="0px" y="0px" viewBox="0 0 1024 500"
    style="enable-background:new 0 0 1024 500;" xml:space="preserve">
<style type="text/css">
	.st0{fill:#FFFFFF;}
	.st1{fill:url(#path341_1_);}
	.st2{fill:url(#path343_1_);}
	.st3{fill:url(#path345_1_);}
	.st4{fill:url(#path347_1_);}
</style>
    <g id="background">
	<rect class="st0" width="1024" height="500" />
</g>
    <g id="Layer_1">
	<g id="Layer_2_1_">
		<g id="svg8">

				<linearGradient id="path341_1_" gradientUnits="userSpaceOnUse" x1="-3383.7007" y1="257.2654" x2="-3343.4907" y2="237.6654"
                    gradientTransform="matrix(-2.1 0 0 -2.04 -6526.1694 845.2493)">
				<stop offset="0" style="stop-color:#332B94" />
                    <stop offset="1" style="stop-color:#1FB1C3" />
			</linearGradient>
            <path id="path341" class="st1" d="M586.6,314.2l-1,1.2l-0.9,1.2l-1.4,1.3l-1.8,0.9l-0.8,0.3l-0.7,0.2l-91.2-0.3l-70.4,68
				l105.4-0.1C565,380.6,585.1,353.7,586.6,314.2L586.6,314.2z" />

            <linearGradient id="path343_1_" gradientUnits="userSpaceOnUse" x1="-3437.2083" y1="322.6476" x2="-3405.9382" y2="232.0276"
                gradientTransform="matrix(-2.04 0 0 -2.07 -6374.7046 862.8085)">
				<stop offset="0" style="stop-color:#332B94" />
                <stop offset="1" style="stop-color:#1FB1C3" />
			</linearGradient>
            <path id="path343" class="st2" d="M577,179.1c36.8-1.6,66.9,23.8,72.2,60.1v109.6c-0.8,18.9-21.4,38.3-40.7,38.2l-88-0.1
				c36.4-5.6,59.4-32.8,60.7-69V185.2l-0.4-2.2l-1.1-1.7l-1.3-1.1L577,179.1z" />

            <linearGradient id="path345_1_" gradientUnits="userSpaceOnUse" x1="-3248.1292" y1="331.2633" x2="-3346.8792" y2="326.9334"
                gradientTransform="matrix(-2.28 0 0 -2.04 -6982.334 845.2493)">
				<stop offset="0" style="stop-color:#332B94" />
                <stop offset="1" style="stop-color:#1FB1C3" />
			</linearGradient>
            <path id="path345" class="st3" d="M568.5,182.4c40.7-1.4,74.7,22.8,80.7,59.1v-90.9c0.4-22.9-25.3-38-51-37.3H492.6
				c-47.4,5.2-69.4,30.8-73,71.8l0.1,2.1l0.4-0.9l0.7-1.4l1-1.1l1.5-1.1l1.4-0.7l1.4-0.4L568.5,182.4z" />

            <linearGradient id="path347_1_" gradientUnits="userSpaceOnUse" x1="-3336.3093" y1="228.6771" x2="-3339.3293" y2="297.477"
                gradientTransform="matrix(-2.04 0 0 -2.04 -6374.7046 845.2493)">
				<stop offset="0" style="stop-color:#332B94" />
                <stop offset="1" style="stop-color:#1FB1C3" />
			</linearGradient>
            <path id="path347" class="st4" d="M443.9,187.1l0.3,99.7l21.4-22.8l3.3-2.6l1.6-0.8l1.7-0.6l1.9-0.2l1.9,0.2l1.7,0.7l1.2,0.6
				l1.3,1.1l1,0.9l13.5,13.4l0.5,0.5l0.5,0.6l0.5,0.6l0.5,0.7l0.4,0.7l0.4,0.8l0.4,1.1l0.3,1.2l0.1,0.6l0.1,0.9v1.1l-0.1,0.7
				l-0.1,0.6l-0.2,1l-0.4,1.1l-1.2,2.2L495,293l-98.1,85.8c-14.1-10.2-22.6-23.9-22.1-40.2V159.8c2.9-28.1,22.1-46.2,47.4-46.8
				l87,0.2l-5.1,0.7l-6.4,1.1l-6.1,1.5l-6,2.3L483,120l-4.5,2.5l-4.7,3.3l-5.1,3.7l-4.5,4.1l-3.5,3.9l-4.3,5.4l-2.6,3.8l-2.2,3.7
				l-2.7,6.1l-1.6,4.3l-1.7,7.7l-1.2,6.6L443.9,187.1z" />
		</g>
	</g>
</g>
</svg>
