<svg xmlns="http://www.w3.org/2000/svg" xmlns:xlink="http://www.w3.org/1999/xlink" viewBox="0 0 274.49 273.96">
    <defs>
        <style>
            .cls-1{fill:url(#linear-gradient);}.cls-2{fill:url(#linear-gradient-2);}.cls-3{fill:url(#linear-gradient-3);}.cls-4{fill:url(#linear-gradient-4);}
        </style>
        <linearGradient id="linear-gradient" x1="-1571.57" y1="622.83" x2="-1531.36" y2="603.23"
            gradientTransform="translate(-3096.81 1475.27) rotate(180) scale(2.1 2.04)" gradientUnits="userSpaceOnUse">
            <stop offset="0" stop-color="#332b94" />
            <stop offset="1" stop-color="#1fb1c3" />
        </linearGradient>
        <linearGradient id="linear-gradient-2" x1="-1606.72" y1="681.73" x2="-1575.45" y2="591.11"
            gradientTransform="translate(-3011.72 1494.33) rotate(180) scale(2.04 2.07)" xlink:href="#linear-gradient" />
        <linearGradient id="linear-gradient-3" x1="-1492.36" y1="696.35" x2="-1591.11" y2="692.02"
            gradientTransform="translate(-3353.85 1475.27) rotate(180) scale(2.28 2.04)" xlink:href="#linear-gradient" />
        <linearGradient id="linear-gradient-4" x1="-1505.74" y1="592.84" x2="-1508.76" y2="661.64"
            gradientTransform="translate(-3011.72 1475.27) rotate(180) scale(2.04)" xlink:href="#linear-gradient" />
    </defs>
    <g id="Layer_2" data-name="Layer 2">
        <g id="svg8">
            <path id="path341" class="cls-1"
                d="M211.8,201.14l-1,1.22-.91,1.18-1.4,1.27-1.82.93-.76.29-.71.25L114,205.94l-70.37,68,105.41-.1c41.2-6.26,61.34-33.17,62.79-72.7Z" />
            <path id="path343" class="cls-2"
                d="M202.27,66.06c36.83-1.61,66.89,23.77,72.22,60.08V235.76c-.82,18.85-21.44,38.29-40.72,38.2l-88-.12c36.36-5.62,59.42-32.82,60.67-69V72.16l-.38-2.22L205,68.29l-1.32-1.1Z" />
            <path id="path345" class="cls-3"
                d="M193.76,69.41c40.71-1.43,74.67,22.78,80.73,59.11V37.58c.36-22.87-25.29-38-51-37.34H117.85C70.46,5.48,48.47,31.05,44.81,72l.09,2.09.42-.95L46,71.75l1-1.08,1.47-1.06,1.35-.67,1.41-.38Z" />
            <path id="path347" class="cls-4"
                d="M69.11,74.13l.28,99.72L90.84,151l3.26-2.56,1.63-.8,1.71-.6,1.86-.16,1.89.23,1.67.7,1.23.65,1.28,1.08,1,.91,13.46,13.39.49.52.5.58.55.65.45.68.39.67.44.84.45,1.06.3,1.17.11.62.08.87,0,1.06-.09.72-.1.59-.25,1-.39,1.07-1.16,2.17L120.18,180,22.11,265.75C8.06,255.55-.45,241.89,0,225.52V46.76C2.91,18.61,22.11.58,47.38,0l87,.24-5.06.67-6.38,1.14L116.8,3.51l-6,2.27L108.21,7l-4.49,2.47-4.67,3.28-5.13,3.66-4.47,4.11L86,24.41,81.71,29.8l-2.63,3.82-2.23,3.74-2.73,6.11-1.61,4.34-1.72,7.74-1.2,6.57Z" />
        </g>
    </g>
</svg>