<?xml version="1.0" encoding="utf-8"?><!-- Generator: Adobe Illustrator 25.2.0, SVG Export Plug-In . SVG Version: 6.00 Build 0)  -->
<svg version="1.1" id="Layer_1" xmlns="http://www.w3.org/2000/svg" xmlns:xlink="http://www.w3.org/1999/xlink" x="0px" y="0px" viewBox="0 0 400 400"
    style="enable-background:new 0 0 400 400;" xml:space="preserve">
<style type="text/css">
	.st0{fill:url(#path341_1_);}
	.st1{fill:url(#path343_1_);}
	.st2{fill:url(#path345_1_);}
	.st3{fill:url(#path347_1_);}
</style>
    <g id="Layer_2_1_">
	<g id="svg8">

			<linearGradient id="path341_1_" gradientUnits="userSpaceOnUse" x1="-2722.8833" y1="316.5615" x2="-2682.6733" y2="336.1615"
                gradientTransform="matrix(-2.1 0 0 2.04 -5450.4692 -375.3907)">
			<stop offset="0" style="stop-color:#332B94" />
                <stop offset="1" style="stop-color:#1FB1C3" />
		</linearGradient>
        <path id="path341" class="st0" d="M274.6,264.2l-1,1.2l-0.9,1.2l-1.4,1.3l-1.8,0.9l-0.8,0.3l-0.7,0.2l-91.2-0.3l-70.4,68
			l105.4-0.1C253,330.6,273.1,303.7,274.6,264.2L274.6,264.2z" />

        <linearGradient id="path343_1_" gradientUnits="userSpaceOnUse" x1="-2767.1782" y1="252.8966" x2="-2735.9082" y2="343.5166"
            gradientTransform="matrix(-2.04 0 0 2.07 -5319.8247 -378.5614)">
			<stop offset="0" style="stop-color:#332B94" />
            <stop offset="1" style="stop-color:#1FB1C3" />
		</linearGradient>
        <path id="path343" class="st1" d="M265,129.1c36.8-1.6,66.9,23.8,72.2,60.1v109.6c-0.8,18.9-21.4,38.3-40.7,38.2l-88-0.1
			c36.4-5.6,59.4-32.8,60.7-69V135.2l-0.4-2.2l-1.1-1.7l-1.3-1.1L265,129.1z" />

        <linearGradient id="path345_1_" gradientUnits="userSpaceOnUse" x1="-2612.094" y1="242.5805" x2="-2710.844" y2="246.9104"
            gradientTransform="matrix(-2.28 0 0 2.04 -5844.1738 -375.3907)">
			<stop offset="0" style="stop-color:#332B94" />
            <stop offset="1" style="stop-color:#1FB1C3" />
		</linearGradient>
        <path id="path345" class="st2" d="M256.5,132.4c40.7-1.4,74.7,22.8,80.7,59.1v-90.9c0.4-22.9-25.3-38-51-37.3H180.6
			c-47.4,5.2-69.4,30.8-73,71.8l0.1,2.1l0.4-0.9l0.7-1.4l1-1.1l1.5-1.1l1.3-0.7l1.4-0.4L256.5,132.4z" />

        <linearGradient id="path347_1_" gradientUnits="userSpaceOnUse" x1="-2666.2437" y1="345.1649" x2="-2669.2637" y2="276.365"
            gradientTransform="matrix(-2.04 0 0 2.04 -5319.8247 -375.3907)">
			<stop offset="0" style="stop-color:#332B94" />
            <stop offset="1" style="stop-color:#1FB1C3" />
		</linearGradient>
        <path id="path347" class="st3" d="M131.9,137.1l0.3,99.7l21.4-22.9l3.3-2.6l1.6-0.8l1.7-0.6l1.9-0.2l1.9,0.2l1.7,0.7l1.2,0.6
			l1.3,1.1l1,0.9l13.5,13.4l0.5,0.5l0.5,0.6l0.6,0.6l0.4,0.7l0.4,0.7l0.4,0.8l0.4,1.1l0.3,1.2l0.1,0.6l0.1,0.9v1.1l-0.1,0.7
			l-0.1,0.6l-0.2,1l-0.4,1.1l-1.2,2.2l-1.4,1.9l-98.1,85.8c-14.1-10.2-22.6-23.9-22.1-40.2V109.8c2.9-28.1,22.1-46.2,47.4-46.8
			l87,0.2l-5.1,0.7l-6.4,1.1l-6.1,1.5l-6,2.3L171,70l-4.5,2.5l-4.7,3.3l-5.1,3.7l-4.5,4.1l-3.5,3.9l-4.3,5.4l-2.6,3.8l-2.2,3.7
			l-2.7,6.1l-1.6,4.3l-1.7,7.7l-1.2,6.6L131.9,137.1z" />
	</g>
</g>
</svg>
