<?xml version="1.0" encoding="utf-8"?><!-- Generator: Adobe Illustrator 25.2.0, SVG Export Plug-In . SVG Version: 6.00 Build 0)  -->
<svg version="1.1" id="Layer_1" xmlns="http://www.w3.org/2000/svg" xmlns:xlink="http://www.w3.org/1999/xlink" x="0px" y="0px" viewBox="0 0 350 350"
    style="enable-background:new 0 0 350 350;" xml:space="preserve">
<style type="text/css">
	.st0{fill:#FFFFFF;}
</style>
    <g id="Layer_2_1_">
	<g id="svg8">
		<path id="path341" class="st0" d="M249.6,239.2l-1,1.2l-0.9,1.2l-1.4,1.3l-1.8,0.9l-0.8,0.3l-0.7,0.2l-91.2-0.3l-70.4,68
			l105.4-0.1C228,305.6,248.1,278.7,249.6,239.2L249.6,239.2z" />
        <path id="path343" class="st0" d="M240,104.1c36.8-1.6,66.9,23.8,72.2,60.1v109.6c-0.8,18.9-21.4,38.3-40.7,38.2l-88-0.1
			c36.4-5.6,59.4-32.8,60.7-69V110.2l-0.4-2.2l-1.1-1.7l-1.3-1.1L240,104.1z" />
        <path id="path345" class="st0" d="M231.5,107.4c40.7-1.4,74.7,22.8,80.7,59.1V75.6c0.4-22.9-25.3-38-51-37.3H155.6
			c-47.4,5.2-69.4,30.8-73,71.8l0.1,2.1l0.4-0.9l0.7-1.4l1-1.1l1.5-1.1l1.3-0.7l1.4-0.4L231.5,107.4z" />
        <path id="path347" class="st0" d="M106.9,112.1l0.3,99.7l21.4-22.9l3.3-2.6l1.6-0.8l1.7-0.6l1.9-0.2l1.9,0.2l1.7,0.7l1.2,0.6
			l1.3,1.1l1,0.9l13.5,13.4l0.5,0.5l0.5,0.6l0.6,0.6l0.4,0.7l0.4,0.7l0.4,0.8l0.4,1.1l0.3,1.2l0.1,0.6l0.1,0.9v1.1l-0.1,0.7
			l-0.1,0.6l-0.2,1l-0.4,1.1l-1.2,2.2l-1.4,1.9l-98.1,85.8c-14.1-10.2-22.6-23.9-22.1-40.2V84.8C40.7,56.7,59.9,38.6,85.2,38l87,0.2
			l-5.1,0.7l-6.4,1.1l-6.1,1.5l-6,2.3L146,45l-4.5,2.5l-4.7,3.3l-5.1,3.7l-4.5,4.1l-3.5,3.9l-4.3,5.4l-2.6,3.8l-2.2,3.7l-2.7,6.1
			l-1.6,4.3l-1.7,7.7l-1.2,6.6L106.9,112.1z" />
	</g>
</g>
</svg>
